PathFileType	4	(X/Y/Z)	E:\Qualisys_Data\Carbon_Farble_Plate\Data\Amateur_Runner\S2\T1\S2T1V23_c3d.trc
DataRate	CameraRate	NumFrames	NumMarkers	Units	OrigDataRate	OrigDataStartFrame	OrigNumFrames
200.000000	200.000000	4	39	mm	200.000000	274	314
Frame#	Time	LSHO			RSHO			LICST			RICST			LASIS			LHEEL			RASIS			LTROC			RTROC			SACR			LTH1			LSK4			LTH2			LTH3			RHM5			LSK2			LTH4			RTH1			LTOE			RTH2			RTH3			RTH4			LLEP			RLEP			LSK1			LSK3			RSK1			LHM5			RSK2			LFT1			RSK3			RSK4			LLME			RLME			RTOE			RHEEL			RFT1			RFT2			LFT2			
		X1	Y1	Z1	X2	Y2	Z2	X3	Y3	Z3	X4	Y4	Z4	X5	Y5	Z5	X6	Y6	Z6	X7	Y7	Z7	X8	Y8	Z8	X9	Y9	Z9	X10	Y10	Z10	X11	Y11	Z11	X12	Y12	Z12	X13	Y13	Z13	X14	Y14	Z14	X15	Y15	Z15	X16	Y16	Z16	X17	Y17	Z17	X18	Y18	Z18	X19	Y19	Z19	X20	Y20	Z20	X21	Y21	Z21	X22	Y22	Z22	X23	Y23	Z23	X24	Y24	Z24	X25	Y25	Z25	X26	Y26	Z26	X27	Y27	Z27	X28	Y28	Z28	X29	Y29	Z29	X30	Y30	Z30	X31	Y31	Z31	X32	Y32	Z32	X33	Y33	Z33	X34	Y34	Z34	X35	Y35	Z35	X36	Y36	Z36	X37	Y37	Z37	X38	Y38	Z38	X39	Y39	Z39	

275	1.37	2339.91650390625	1488.9716796875	-452.84228515625	2291.156005859375	1479.372680664062	-161.0758056640625	2296.883544921875	1014.914916992188	-439.8493041992188	2302.165283203125	1024.969360351562	-140.9244384765625	2345.9794921875	962.3865356445312	-426.065673828125	1844.809814453125	250.6454925537109	-318.5016784667969	2361.114013671875	978.6261596679688	-170.9209899902344	2195.734130859375	915.4480590820312	-430.9490356445312	2241.0498046875	922.2432861328124	-116.5140914916992	2203.3798828125	1057.629638671875	-298.4181823730469	2224.2080078125	658.1976318359375	-438.6212768554688	1937.892578125	383.7791137695312	-401.2183227539062	2147.1044921875	691.7887573242188	-442.6640625	2182.780517578125	565.9423828125	-414.7659606933594	2363.548095703125	154.6274719238281	-125.4986038208008	1991.129150390625	466.7207641601562	-417.0687255859375	2106.26513671875	603.498046875	-413.478515625	2486.079833984375	731.5851440429688	-121.7784729003906	1966.60205078125	47.67121124267578	-324.19384765625	2417.611328125	695.9735107421875	-114.87451171875	2530.22265625	641.3681640625	-138.7063903808594	2457.145751953125	608.5025634765625	-133.1398162841797	2114.6806640625	545.6358032226562	-415.2689819335938	2489.63427734375	587.1767578125	-133.0906372070312	2056.572998046875	423.191650390625	-421.3654479980469	2001.900146484375	338.7945556640625	-411.0981750488281	2468.082275390625	467.6156616210938	-132.0130310058594	1911.778686523438	66.38005065917969	-386.0217895507812	2401.42578125	512.6051025390625	-129.0910034179688	1835.5751953125	230.7435455322266	-284.4327392578125	2411.47705078125	383.0896911621094	-144.0566101074219	2346.7490234375	430.4259033203125	-143.9015960693359	1880.5234375	205.3406066894531	-376.6864318847656	2276.508056640625	251.9503936767578	-175.4459381103516	2429.749267578125	141.1438751220703	-178.1773681640625	2224.3583984375	260.58544921875	-240.5187072753906	2230.033447265625	227.0584259033203	-268.4600830078125	2208.522216796875	239.0410614013672	-215.3957214355469	1818.3818359375	230.3226623535156	-336.8243713378906
276	1.375	2360.739990234375	1492.903930664062	-451.4754638671875	2310.60302734375	1482.638916015625	-160.9855194091797	2317.165771484375	1018.588989257812	-440.0455932617188	2323.132080078125	1028.50830078125	-141.1878356933594	2367.0625	965.7083740234376	-425.8335876464844	1860.903442382812	262.0568237304688	-322.0832824707031	2382.086181640625	982.0630493164062	-171.1864318847656	2216.16845703125	920.6117553710938	-431.37646484375	2262.901611328125	925.77392578125	-116.1474685668945	2224.162109375	1061.707885742188	-298.9087219238281	2239.994873046875	663.0283203125	-440.3069763183594	1951.505004882812	391.9672546386719	-402.24072265625	2162.9921875	697.94091796875	-443.0368957519531	2197.033447265625	571.2084350585938	-416.0783996582031	2406.41064453125	149.9207153320312	-124.1715316772461	2005.497924804688	474.4717407226562	-417.5032348632812	2121.43212890625	610.3675537109375	-412.8056945800781	2507.010009765625	734.239013671875	-122.4789505004883	1970.667358398438	46.79447937011719	-327.2720642089844	2437.87353515625	698.841796875	-115.4822998046875	2548.182373046875	643.36767578125	-138.0455627441406	2476.51611328125	611.1776123046875	-134.4152374267578	2129.30224609375	552.55029296875	-415.1004028320312	2509.37744140625	589.037109375	-133.9613342285156	2070.478515625	430.0704650878906	-422.3861389160156	2015.088134765625	346.3662414550781	-413.3323974609375	2492.61865234375	467.9224548339844	-131.6876983642578	1916.036499023438	70.32174682617188	-387.7611999511719	2423.202392578125	508.8218688964844	-128.3119201660156	1850.622436523438	243.3041229248047	-287.639892578125	2440.614013671875	380.4457092285156	-143.6190338134766	2373.21923828125	423.9110412597656	-143.6685028076172	1892.72802734375	214.2811584472656	-379.8180541992188	2312.97509765625	240.7761383056641	-174.9489593505859	2473.493408203125	140.7851715087891	-176.3180541992188	2260.99169921875	246.4215087890625	-240.6055603027344	2269.208251953125	212.8090057373047	-268.1766967773438	2246.445556640625	223.7538452148438	-215.4224243164062	1832.82861328125	242.9187164306641	-339.7016906738281
277	1.38	2379.996826171875	1496.313720703125	-448.9234619140625	2328.263427734375	1485.864135742188	-160.3603057861328	2338.20654296875	1021.966674804688	-439.4319458007812	2344.400634765625	1031.52685546875	-140.9216003417969	2387.78076171875	968.777099609375	-425.9773559570312	1876.258666992188	272.8264770507812	-325.1988830566406	2403.28271484375	984.5000610351562	-170.8200378417969	2236.624755859375	925.0803833007812	-431.5142211914062	2284.44921875	929.9457397460938	-115.804817199707	2245.552734375	1064.893310546875	-298.5409240722656	2255.85546875	667.6437377929688	-441.8856201171875	1965.7001953125	399.2641296386719	-402.9219360351562	2179.5595703125	703.8397216796875	-442.4707641601562	2212.159912109375	576.925537109375	-418.2111206054688	2448.435791015625	145.4828796386719	-122.8179168701172	2020.520874023438	481.5868835449219	-418.0761108398438	2137.095703125	616.8892822265625	-412.5979614257812	2527.001953125	735.797119140625	-123.7480087280273	1973.364379882812	46.75508117675781	-330.7977600097656	2458.07177734375	700.9237060546875	-116.9202880859375	2569.59423828125	644.239501953125	-140.1594696044922	2495.42578125	613.3746948242188	-134.7839050292969	2144.274169921875	558.406982421875	-415.8845520019531	2527.7021484375	590.5068359375	-135.0470275878906	2085.28271484375	436.7201843261719	-423.1545104980469	2028.8603515625	353.2983093261719	-414.7498474121094	2516.776611328125	467.6150207519531	-131.3052825927734	1920.215576171875	75.2357406616211	-388.6960754394531	2445.455322265625	504.8101196289062	-127.6634674072266	1865.888061523438	255.3052215576172	-290.5291748046875	2469.774169921875	377.2972717285156	-142.8075103759766	2400.042724609375	417.3578186035156	-143.2672424316406	1904.932006835938	223.3585052490234	-382.7597961425781	2348.93798828125	232.4744873046875	-173.830810546875	2516.422607421875	140.8502960205078	-174.5726165771484	2298.53857421875	232.4521484375	-240.3615570068359	2309.0263671875	199.5024108886719	-268.3766174316406	2284.989990234375	209.2754516601562	-215.8245849609375	1847.168334960938	255.1347351074219	-342.6377868652344
278	1.385	2401.22119140625	1499.5576171875	-448.1900939941406	2350.388427734375	1488.951293945312	-160.4206390380859	2359.08203125	1025.28076171875	-439.1202697753906	2365.513671875	1034.293334960938	-141.0411224365234	2408.24462890625	971.486083984375	-425.9073486328125	1891.48046875	283.5018005371094	-327.3619995117188	2424.1494140625	987.1206665039062	-171.0839538574219	2257.2939453125	929.7178955078124	-432.1590270996094	2305.621337890625	933.0755615234376	-116.5296859741211	2266.501953125	1068.192138671875	-298.1852111816406	2272.016357421875	672.323974609375	-443.4637145996094	1980.758422851562	407.0843505859375	-403.6069030761719	2196.446533203125	709.2542724609375	-442.0177307128906	2227.96484375	581.2559814453125	-419.6371765136719	2490.32568359375	142.062255859375	-121.4736480712891	2036.418212890625	488.2698364257812	-418.8680114746094	2153.498779296875	622.3292236328125	-412.1982116699219	2546.349853515625	736.8314208984375	-124.5082397460938	1976.99755859375	49.91977691650391	-334.1469116210938	2477.02392578125	702.78125	-118.5913467407227	2588.292236328125	644.5596923828125	-140.5269470214844	2513.75244140625	614.72412109375	-135.6056823730469	2161.3232421875	563.1038208007812	-415.9578552246094	2544.8662109375	591.23681640625	-135.3065643310547	2100.58544921875	442.6578979492188	-424.0186462402344	2043.421508789062	360.1650695800781	-416.3857727050781	2540.220458984375	467.0359191894531	-130.7907409667969	1923.448486328125	82.19690704345703	-389.4783630371094	2467.7236328125	500.3011779785156	-127.2929992675781	1881.003295898438	265.7012939453125	-292.6058349609375	2498.62451171875	374.2323608398438	-142.3272705078125	2426.78466796875	410.5065307617188	-142.8288269042969	1916.942260742188	232.5219573974609	-385.1869201660156	2386.275390625	222.4714508056641	-173.0185699462891	2558.9482421875	141.9158935546875	-172.6522521972656	2335.765625	219.3992462158203	-240.3356018066406	2348.745361328125	187.3304290771484	-267.3348388671875	2323.962890625	195.350341796875	-215.8531799316406	1861.19873046875	266.9108581542969	-343.8321228027344
